<?xml version="1.0" encoding="utf-8"?>
<!-- Generator: Adobe Illustrator 18.0.0, SVG Export Plug-In . SVG Version: 6.00 Build 0)  -->
<!DOCTYPE svg PUBLIC "-//W3C//DTD SVG 1.1//EN" "http://www.w3.org/Graphics/SVG/1.1/DTD/svg11.dtd">
<svg version="1.1" id="Layer_1" xmlns="http://www.w3.org/2000/svg" xmlns:xlink="http://www.w3.org/1999/xlink" x="0px" y="0px"
	 viewBox="0 0 50 50" enable-background="new 0 0 50 50" xml:space="preserve">
<g>
	<title>background</title>
	<rect id="canvas_background" x="-1" y="-1" fill="none" width="52" height="52"/>
</g>
<g>
	<title>Layer 1</title>
	<ellipse id="svg_4" fill="#00FFFF" cx="25" cy="25" rx="24.9" ry="25"/>
	<g id="Glyph">
		<g id="svg_1">
			<path id="svg_2" d="M7.5,31.6l1.9,1.1c0.1-0.2,3.1-5.4,12.5-4.4c3.8,0.4,6.8,1.7,9.4,2.9c2.3,1,4.3,1.9,6.5,1.9
				c1.9,0,3.7-0.7,5.7-2.7l-1.5-1.6c-1,1-2,1.6-2.9,1.9c-1.4-1.1-3.9-3.7-3-7.4c0.8-3.4,4.4-5.4,4.5-5.4l1.5-0.8l-1.6-0.3
				c-0.1,0-11-1.7-14.3,10c-1.6-1.8-2.4-4.3-2.4-7.2c0-8.6,9.4-9.5,9.8-9.6l2-0.2L33.7,9c-0.1-0.1-10.4-5.1-17.5,2
				c-6,6-5.9,14.7-5.6,17.5C8.4,29.9,7.6,31.4,7.5,31.6L7.5,31.6z"/>
			<path id="svg_3" d="M21.8,35.6c3.7,0.4,6.6,1.7,9.2,2.8c2.3,1,4.5,2,6.7,2c2,0,4-0.8,6.1-2.9l-2.4-2.6c-2.8,2.8-4.7,2.2-9.1,0.2
				c-2.7-1.2-6-2.7-10.2-3.1c-11.3-1.2-15.1,5.6-15.2,5.9l3,1.7C10,39.5,12.7,34.6,21.8,35.6z"/>
		</g>
	</g>
</g>
</svg>
