<svg width="50" height="50" xmlns="http://www.w3.org/2000/svg">

 <g>
  <title>background</title>
  <rect fill="#00ffff" id="canvas_background" height="52" width="52" y="-1" x="-1"/>
 </g>
 <g>
  <title>Layer 1</title>
  <g id="Glyph">
   <g id="svg_1">
    <path id="svg_2" d="m7.483451,31.567965l1.914023,1.112986c0.120921,-0.219715 3.07142,-5.354807 12.486063,-4.367893c3.825741,0.403416 6.780848,1.724106 9.387007,2.889917c2.257208,1.009729 4.349733,1.945021 6.456083,1.945021c1.850681,0 3.710579,-0.721581 5.702911,-2.749441l-1.535133,-1.630455c-1.026115,1.045748 -1.976204,1.640057 -2.926319,1.9102c-1.353168,-1.070959 -3.900589,-3.654715 -2.985043,-7.404284c0.832645,-3.41099 4.448784,-5.360807 4.484486,-5.381216l1.486763,-0.787615l-1.646835,-0.28335c-0.112869,-0.019209 -11.002758,-1.73611 -14.29299,9.958023c-1.550106,-1.820156 -2.368921,-4.262236 -2.368921,-7.152153c0,-8.622917 9.427315,-9.530594 9.828087,-9.565413l2.004997,-0.17169l-1.811523,-0.910078c-0.102505,-0.051625 -10.387781,-5.089468 -17.534849,1.978639c-6.019615,5.953921 -5.851476,14.704106 -5.624602,17.481166c-2.084468,1.447956 -2.953955,2.996769 -3.024204,3.127636z"/>
    <path id="svg_3" d="m21.820198,35.557655c3.729002,0.392609 6.638048,1.694088 9.202742,2.840691c2.266424,1.014526 4.466063,1.997845 6.714048,1.996643c1.979668,0 3.997341,-0.762398 6.131329,-2.935539l-2.413826,-2.57655c-2.797337,2.849098 -4.684872,2.167141 -9.070316,0.206509c-2.655678,-1.18742 -5.960878,-2.666595 -10.218485,-3.114431c-11.335578,-1.199427 -15.080708,5.570921 -15.235026,5.859072l3.020748,1.749321c0.026488,-0.051628 2.758175,-4.981419 11.868787,-4.025715z"/>
   </g>
  </g>
 </g>
</svg>