<?xml version="1.0" encoding="utf-8"?>
<!-- Generator: Adobe Illustrator 18.0.0, SVG Export Plug-In . SVG Version: 6.00 Build 0)  -->
<!DOCTYPE svg PUBLIC "-//W3C//DTD SVG 1.1//EN" "http://www.w3.org/Graphics/SVG/1.1/DTD/svg11.dtd">
<svg version="1.1" id="Layer_1" xmlns="http://www.w3.org/2000/svg" xmlns:xlink="http://www.w3.org/1999/xlink" x="0px" y="0px"
	 viewBox="0 0 50 50" enable-background="new 0 0 50 50" xml:space="preserve">
<g>
	<title>background</title>
	<rect id="canvas_background" x="-1" y="-1" fill="none" width="52" height="52"/>
</g>
<g>
	<title>Layer 1</title>
	<ellipse id="svg_7" fill="#7FFF00" cx="25" cy="25" rx="25" ry="25"/>
	<g id="svg_1">
		<path id="svg_2" d="M35.3,35.1c-0.9,0-1.5-0.6-1.5-0.6c-0.9-1.3-2.2-1.9-3.6-1.9s-2.7,0.6-3.6,1.9c0,0-0.6,0.6-1.6,0.6
			s-1.6-0.6-1.6-0.6c-0.9-1.3-2.2-1.9-3.6-1.9c-1.7,0-3.6,1.9-3.6,1.9c-0.4,0.3-0.9,0.6-1.6,0.6c-0.9,0-1.5-0.6-1.5-0.6
			c-0.9-1.3-2.2-1.9-3.6-1.9v3.2c0.5,0,1.2,0.3,1.6,0.6c0,0,2.2,1.9,3.6,1.9s2.6-0.8,3.6-1.9c0,0,0.9-0.6,1.6-0.6s1.2,0.3,1.5,0.6
			c0,0,2.2,1.9,3.6,1.9c1.9,0,3.6-1.9,3.6-1.9c0.4-0.3,0.9-0.6,1.6-0.6s1.2,0.3,1.5,0.6c0,0,2.2,1.9,3.6,1.9s2.6-0.8,3.6-1.9
			c0,0,0.9-0.6,1.6-0.6v-3.2c-1.7,0-3.6,1.9-3.6,1.9C36.5,34.8,35.9,35.1,35.3,35.1z"/>
		<path id="svg_3" d="M35.3,30.3c-1.4,0-3.6-1.9-3.6-1.9c-0.4-0.3-1-0.6-1.5-0.6S29,28,28.6,28.4c0,0-1.7,1.9-3.6,1.9
			c-1.4,0-3.6-1.9-3.6-1.9c-0.4-0.3-1-0.6-1.5-0.6s-1.6,0.6-1.6,0.6c-1,1.1-2.2,1.9-3.6,1.9s-3.6-1.9-3.6-1.9
			c-0.4-0.3-1-0.6-1.6-0.6v1.6c0.5,0,1.2,0.3,1.6,0.6c0,0,2.2,1.9,3.6,1.9s2.6-0.8,3.6-1.9c0,0,0.9-0.6,1.6-0.6s1.2,0.3,1.5,0.6
			c0,0,2.2,1.9,3.6,1.9c1.9,0,3.6-1.9,3.6-1.9c0.4-0.3,0.9-0.6,1.6-0.6s1.2,0.3,1.5,0.6c0,0,2.2,1.9,3.6,1.9s2.6-0.8,3.6-1.9
			c0,0,0.9-0.6,1.6-0.6v-1.6c-0.5,0-1.6,0.6-1.6,0.6C37.9,29.5,36.8,30.3,35.3,30.3z"/>
		<path id="svg_4" d="M35.3,25.5c-1.4,0-3.6-1.9-3.6-1.9c-0.4-0.3-1-0.6-1.5-0.6s-1.2,0.3-1.6,0.6c0,0-1.7,1.9-3.6,1.9
			c-1.4,0-3.6-1.9-3.6-1.9c-0.4-0.3-1-0.6-1.5-0.6s-1.6,0.6-1.6,0.6c-1,1.1-2.2,1.9-3.6,1.9s-3.6-1.9-3.6-1.9
			c-0.4-0.3-1-0.6-1.6-0.6v1.6c0.5,0,1.2,0.3,1.6,0.6c0,0,2.2,1.9,3.6,1.9s2.6-0.8,3.6-1.9c0,0,0.9-0.6,1.6-0.6s1.2,0.3,1.5,0.6
			c0,0,2.2,1.9,3.6,1.9c1.9,0,3.6-1.9,3.6-1.9c0.4-0.3,0.9-0.6,1.6-0.6s1.2,0.3,1.5,0.6c0,0,2.2,1.9,3.6,1.9s2.6-0.8,3.6-1.9
			c0,0,0.9-0.6,1.6-0.6v-1.6c-0.5,0-1.6,0.6-1.6,0.6C37.9,24.7,36.8,25.5,35.3,25.5z"/>
		<path id="svg_5" d="M35.3,20.7c-1.4,0-3.6-1.9-3.6-1.9c-0.4-0.3-1-0.6-1.5-0.6s-1.2,0.3-1.6,0.6c0,0-1.7,1.9-3.6,1.9
			c-1.4,0-3.6-1.9-3.6-1.9c-0.4-0.3-1-0.6-1.5-0.6s-1.6,0.6-1.6,0.6c-1,1.1-2.2,1.9-3.6,1.9s-3.6-1.9-3.6-1.9
			c-0.4-0.3-1-0.6-1.6-0.6v1.6c0.5,0,1.2,0.3,1.6,0.6c0,0,2.2,1.9,3.6,1.9s2.6-0.8,3.6-1.9c0,0,1-0.6,1.6-0.6s1.2,0.3,1.5,0.6
			c0,0,2.2,1.9,3.6,1.9c1.9,0,3.6-1.9,3.6-1.9c0.4-0.3,1-0.6,1.6-0.6s1.2,0.3,1.5,0.6c0,0,2.2,1.9,3.6,1.9s2.6-0.8,3.6-1.9
			c0,0,0.9-0.6,1.6-0.6v-1.6c-0.5,0-1.6,0.6-1.6,0.6C37.9,19.9,36.8,20.7,35.3,20.7z"/>
		<path id="svg_6" d="M36.9,13.6c-0.4,0.3-0.9,0.6-1.6,0.6c-0.9,0-1.5-0.6-1.5-0.6c-0.9-1.3-2.2-1.9-3.6-1.9s-2.7,0.6-3.6,1.9
			c0,0-0.6,0.6-1.6,0.6s-1.6-0.6-1.6-0.6c-0.9-1.3-2.2-1.9-3.6-1.9c-1.7,0-3.6,1.9-3.6,1.9c-0.4,0.3-1,0.6-1.6,0.6
			c-0.9,0-1.5-0.6-1.5-0.6c-0.9-1.3-2.2-1.9-3.6-1.9v3.2c0.5,0,1.2,0.3,1.6,0.6c0,0,2.2,1.9,3.6,1.9s2.6-0.8,3.6-1.9
			c0,0,1-0.6,1.6-0.6s1.2,0.3,1.5,0.6c0,0,2.2,1.9,3.6,1.9c1.9,0,3.6-1.9,3.6-1.9c0.4-0.3,1-0.6,1.6-0.6s1.2,0.3,1.5,0.6
			c0,0,2.2,1.9,3.6,1.9s2.6-0.8,3.6-1.9c0,0,0.9-0.6,1.6-0.6v-3.2C38.8,11.7,36.9,13.6,36.9,13.6z"/>
	</g>
</g>
</svg>
