<svg width="50" height="50" xmlns="http://www.w3.org/2000/svg">
 <g>
  <title>background</title>
  <rect x="-1" y="-1" width="52" height="52" id="canvas_background" fill="none"/>
 </g>

 <g>
  <title>Layer 1</title>
  <g id="svg_3">
   <path fill="#666666" d="m24.982044,0c13.818192,0 24.982044,11.158 24.982044,24.968952s-11.163853,24.968952 -24.982044,24.968952s-24.982044,-11.157997 -24.982044,-24.968952s11.163851,-24.968952 24.982044,-24.968952z" id="svg_3"/>
  </g>
  <g id="svg_2">
   <g id="svg_11">
    <g id="svg_12">
     <path fill="#4FCCFC" d="m39.238113,33.600193l0,-17.199739l-10.085125,0l-18.390514,0l0,17.199739l28.475639,0z" id="svg_13"/>
    </g>
   </g>
   <g id="svg_14">
    <g id="svg_15">
     <polygon fill="#3EB57C" points="32.11920166015625,26.228878021240234 28.797046661376953,29.668825149536133 25.000293731689453,33.60019302368164 32.11920166015625,33.60019302368164 39.23811340332031,33.60019302368164 " id="svg_16"/>
    </g>
   </g>
   <g id="svg_17">
    <g id="svg_18">
     <path fill="#FFEB33" d="m29.153057,18.734661c1.305046,0 2.372852,1.105774 2.372852,2.457172c0,1.351395 -1.067806,2.45701 -2.372852,2.45701c-0.593327,0 -1.186501,-0.245623 -1.661133,-0.737024c-0.47463,-0.491402 -0.711872,-1.105776 -0.711872,-1.719986c0,-1.351398 1.067806,-2.457172 2.373005,-2.457172l0,0z" id="svg_19"/>
    </g>
   </g>
   <g id="svg_20">
    <g id="svg_21">
     <polygon fill="#309E6C" points="28.797046661376953,29.668825149536133 24.881643295288086,25.246034622192383 21.44083595275879,21.31466293334961 10.762472152709961,33.60019302368164 25.000293731689453,33.60019302368164 32.11920166015625,33.60019302368164 " id="svg_22"/>
    </g>
   </g>
  </g>
 </g>
</svg>