<svg width="50" height="50" xmlns="http://www.w3.org/2000/svg">

 <g>
  <title>background</title>
  <rect fill="#7fff00" id="canvas_background" height="52" width="52" y="-1" x="-1"/>
 </g>
 <g>
  <title>Layer 1</title>
  <g id="svg_1">
   <path id="svg_2" d="m35.333332,35.095528c-0.904167,0 -1.549999,-0.640945 -1.549999,-0.640945c-0.904167,-1.281883 -2.195831,-1.922821 -3.616665,-1.922821s-2.712502,0.640938 -3.616667,1.922821c0,0 -0.645834,0.640945 -1.550001,0.640945c-0.904167,0 -1.550001,-0.640945 -1.550001,-0.640945c-0.904165,-1.281883 -2.195831,-1.922821 -3.616665,-1.922821c-1.679167,0 -3.616667,1.922821 -3.616667,1.922821c-0.387501,0.320473 -0.904167,0.640945 -1.550001,0.640945c-0.904167,0 -1.549999,-0.640945 -1.549999,-0.640945c-0.904166,-1.281883 -2.195833,-1.922821 -3.616667,-1.922821l0,3.204704c0.516666,0 1.162499,0.320473 1.55,0.640945c0,0 2.195832,1.922817 3.616666,1.922817s2.583334,-0.801178 3.616667,-1.922817c0,0 0.904167,-0.640945 1.550001,-0.640945s1.162498,0.320473 1.549999,0.640945c0,0 2.195833,1.922817 3.616667,1.922817c1.9375,0 3.616665,-1.922817 3.616665,-1.922817c0.387501,-0.320473 0.904167,-0.640945 1.550003,-0.640945s1.162498,0.320473 1.549999,0.640945c0,0 2.195831,1.922817 3.616665,1.922817s2.583332,-0.801178 3.616665,-1.922817c0,0 0.904167,-0.640945 1.550003,-0.640945l0,-3.204704c-1.679165,0 -3.616665,1.922821 -3.616665,1.922821c-0.387501,0.320473 -1.033333,0.640945 -1.550003,0.640945z"/>
   <path id="svg_3" d="m35.333332,30.288467c-1.420834,0 -3.616665,-1.922825 -3.616665,-1.922825c-0.387501,-0.320469 -1.033337,-0.640942 -1.549999,-0.640942s-1.162502,0.320473 -1.550003,0.640942c0,0 -1.679165,1.922825 -3.616665,1.922825c-1.420834,0 -3.616667,-1.922825 -3.616667,-1.922825c-0.387501,-0.320469 -1.033335,-0.640942 -1.549999,-0.640942s-1.550001,0.640942 -1.550001,0.640942c-1.033333,1.121647 -2.195833,1.922825 -3.616667,1.922825s-3.616666,-1.922825 -3.616666,-1.922825c-0.387501,-0.320469 -1.033334,-0.640942 -1.55,-0.640942l0,1.602354c0.516666,0 1.162499,0.320471 1.55,0.64094c0,0 2.195832,1.922825 3.616666,1.922825s2.583334,-0.801176 3.616667,-1.922825c0,0 0.904167,-0.64094 1.550001,-0.64094s1.162498,0.320471 1.549999,0.64094c0,0 2.195833,1.922825 3.616667,1.922825c1.9375,0 3.616665,-1.922825 3.616665,-1.922825c0.387501,-0.320469 0.904167,-0.64094 1.550003,-0.64094s1.162498,0.320471 1.549999,0.64094c0,0 2.195831,1.922825 3.616665,1.922825s2.583332,-0.801176 3.616665,-1.922825c0,0 0.904167,-0.64094 1.550003,-0.64094l0,-1.602354c-0.51667,0 -1.550003,0.640942 -1.550003,0.640942c-1.033333,1.121647 -2.195831,1.922825 -3.616665,1.922825z"/>
   <path id="svg_4" d="m35.333332,25.481407c-1.420834,0 -3.616665,-1.922825 -3.616665,-1.922825c-0.387501,-0.320469 -1.033337,-0.64094 -1.549999,-0.64094s-1.162502,0.320471 -1.550003,0.64094c0,0 -1.679165,1.922825 -3.616665,1.922825c-1.420834,0 -3.616667,-1.922825 -3.616667,-1.922825c-0.387501,-0.320469 -1.033335,-0.64094 -1.549999,-0.64094s-1.550001,0.64094 -1.550001,0.64094c-1.033333,1.121649 -2.195833,1.922825 -3.616667,1.922825s-3.616666,-1.922825 -3.616666,-1.922825c-0.387501,-0.320469 -1.033334,-0.64094 -1.55,-0.64094l0,1.602352c0.516666,0 1.162499,0.320473 1.55,0.640942c0,0 2.195832,1.922825 3.616666,1.922825s2.583334,-0.801178 3.616667,-1.922825c0,0 0.904167,-0.640942 1.550001,-0.640942s1.162498,0.320473 1.549999,0.640942c0,0 2.195833,1.922825 3.616667,1.922825c1.9375,0 3.616665,-1.922825 3.616665,-1.922825c0.387501,-0.320469 0.904167,-0.640942 1.550003,-0.640942s1.162498,0.320473 1.549999,0.640942c0,0 2.195831,1.922825 3.616665,1.922825s2.583332,-0.801178 3.616665,-1.922825c0,0 0.904167,-0.640942 1.550003,-0.640942l0,-1.602352c-0.51667,0 -1.550003,0.64094 -1.550003,0.64094c-1.033333,1.121649 -2.195831,1.922825 -3.616665,1.922825z"/>
   <path id="svg_5" d="m35.333332,20.674349c-1.420834,0 -3.616665,-1.922825 -3.616665,-1.922825c-0.387501,-0.320469 -1.033337,-0.64094 -1.549999,-0.64094s-1.162502,0.320471 -1.550003,0.64094c0,0 -1.679165,1.922825 -3.616665,1.922825c-1.420834,0 -3.616667,-1.922825 -3.616667,-1.922825c-0.387501,-0.320469 -1.033335,-0.64094 -1.549999,-0.64094s-1.550001,0.64094 -1.550001,0.64094c-1.033333,1.121649 -2.195833,1.922825 -3.616667,1.922825s-3.616666,-1.922825 -3.616666,-1.922825c-0.387501,-0.320469 -1.033334,-0.64094 -1.55,-0.64094l0,1.602352c0.516666,0 1.162499,0.320473 1.55,0.640942c0,0 2.195832,1.922823 3.616666,1.922823s2.583334,-0.801176 3.616667,-1.922823c0,0 1.033335,-0.640942 1.550001,-0.640942s1.162498,0.320473 1.549999,0.640942c0,0 2.195833,1.922823 3.616667,1.922823c1.9375,0 3.616665,-1.922823 3.616665,-1.922823c0.387501,-0.320469 1.033337,-0.640942 1.550003,-0.640942s1.162498,0.320473 1.549999,0.640942c0,0 2.195831,1.922823 3.616665,1.922823s2.583332,-0.801176 3.616665,-1.922823c0,0 0.904167,-0.640942 1.550003,-0.640942l0,-1.602352c-0.51667,0 -1.550003,0.64094 -1.550003,0.64094c-1.033333,1.121649 -2.195831,1.922825 -3.616665,1.922825z"/>
   <path id="svg_6" d="m36.883335,13.623996c-0.387501,0.320469 -0.904171,0.640941 -1.550003,0.640941c-0.904163,0 -1.549999,-0.640941 -1.549999,-0.640941c-0.904167,-1.281884 -2.195831,-1.922824 -3.616665,-1.922824s-2.712502,0.64094 -3.616667,1.922824c0,0 -0.645834,0.640941 -1.550001,0.640941c-0.904167,0 -1.550001,-0.640941 -1.550001,-0.640941c-0.904165,-1.281884 -2.195831,-1.922824 -3.616665,-1.922824c-1.679167,0 -3.616667,1.922824 -3.616667,1.922824c-0.387501,0.320469 -1.033335,0.640941 -1.550001,0.640941c-0.904167,0 -1.549999,-0.640941 -1.549999,-0.640941c-0.904166,-1.281884 -2.195833,-1.922824 -3.616667,-1.922824l0,3.204705c0.516666,0 1.162499,0.320472 1.55,0.640941c0,0 2.195832,1.922825 3.616666,1.922825s2.583334,-0.801176 3.616667,-1.922825c0,0 1.033335,-0.640941 1.550001,-0.640941s1.162498,0.320472 1.549999,0.640941c0,0 2.195833,1.922825 3.616667,1.922825c1.9375,0 3.616665,-1.922825 3.616665,-1.922825c0.387501,-0.320469 1.033337,-0.640941 1.550003,-0.640941s1.162498,0.320472 1.549999,0.640941c0,0 2.195831,1.922825 3.616665,1.922825s2.583332,-0.801176 3.616665,-1.922825c0,0 0.904167,-0.640941 1.550003,-0.640941l0,-3.204705c-1.679165,0 -3.616665,1.922824 -3.616665,1.922824z"/>
  </g>
 </g>
</svg>