<svg width="50" height="50" xmlns="http://www.w3.org/2000/svg">

 <g>
  <title>background</title>
  <rect fill="none" id="canvas_background" height="52" width="52" y="-1" x="-1"/>
 </g>
 <g>
  <title>Layer 1</title>
  <circle id="svg_1" r="25" cy="25.000006" cx="24.999994" fill="#D22215"/>
  <path id="svg_2" d="m33.351563,14.899597l-16.700012,0c-3.299988,0 -5.899994,2.700012 -5.899994,5.899994l0,8.399994c0,3.300018 2.700012,5.900024 5.899994,5.900024l16.700012,0c3.299988,0 5.899994,-2.700012 5.899994,-5.900024l0,-8.399994c0,-3.199982 -2.600006,-5.899994 -5.899994,-5.899994l0,0zm-4,10.600006l-7.799988,3.700012c-0.200012,0.099976 -0.400024,-0.100006 -0.400024,-0.300018l0,-7.699982c0,-0.200012 0.200012,-0.400024 0.5,-0.300018l7.800018,4c0.100006,0.100006 0.100006,0.400024 -0.100006,0.600006l0,0z" fill="#FFFFFF"/>
 </g>
</svg>